<svg width="25" height="25" viewBox="0 0 25 25" fill="none" xmlns="http://www.w3.org/2000/svg">
<path d="M21.2 5.5H17.2M19.2 3.5V7.5" stroke="#EBEBD3" stroke-linecap="round" stroke-linejoin="round"></path>
<path d="M15.79 10.5C15.4295 11.3259 14.8526 12.039 14.1201 12.564C13.3877 13.0889 12.527 13.4062 11.6291 13.4822C10.7311 13.5582 9.82936 13.3901 9.01911 12.9957C8.20887 12.6013 7.52026 11.9953 7.02613 11.2417C6.532 10.4881 6.25071 9.61502 6.21201 8.71472C6.17331 7.81442 6.37864 6.92039 6.80628 6.12719C7.23393 5.33399 7.86799 4.67111 8.6414 4.20865C9.41482 3.74619 10.2988 3.50134 11.2 3.5C11.8874 3.50074 12.5677 3.64019 13.2 3.91" stroke="#CDB6DF" stroke-linecap="round" stroke-linejoin="round"></path>
<path d="M10.2 13.5H12.2C14.0565 13.5 15.8369 14.2375 17.1497 15.5503C18.4625 16.863 19.2 18.6435 19.2 20.5C19.2 20.7652 19.0946 21.0196 18.9071 21.2071C18.7195 21.3946 18.4652 21.5 18.2 21.5H4.19995C3.93473 21.5 3.68038 21.3946 3.49284 21.2071C3.30531 21.0196 3.19995 20.7652 3.19995 20.5C3.19995 18.6435 3.93745 16.863 5.2502 15.5503C6.56296 14.2375 8.34344 13.5 10.2 13.5Z" stroke="#CDB6DF" stroke-linecap="round" stroke-linejoin="round"></path>
</svg>
