<svg width="25" height="25" viewBox="0 0 25 25" fill="none" xmlns="http://www.w3.org/2000/svg">
<path d="M20.8 4.5H4.80002C4.24773 4.5 3.80002 4.94772 3.80002 5.5V20.5C3.80002 21.0523 4.24773 21.5 4.80002 21.5H20.8C21.3523 21.5 21.8 21.0523 21.8 20.5V5.5C21.8 4.94772 21.3523 4.5 20.8 4.5Z" stroke="#CDB6DF" stroke-linecap="round" stroke-linejoin="round"></path>
<path d="M17.8 3.5V5.5M12.8 3.5V5.5M7.80002 3.5V5.5M20.8 4.5H4.80002C4.5348 4.5 4.28045 4.60536 4.09291 4.79289C3.90538 4.98043 3.80002 5.23478 3.80002 5.5V9.5H21.8V5.5C21.8 5.23478 21.6947 4.98043 21.5071 4.79289C21.3196 4.60536 21.0652 4.5 20.8 4.5Z" stroke="#EBEBD3" stroke-linecap="round" stroke-linejoin="round"></path>
</svg>
