<svg width="24" height="25" viewBox="0 0 24 25" fill="none" xmlns="http://www.w3.org/2000/svg">
<path d="M9 5.5H6C5.73478 5.5 5.48043 5.60536 5.29289 5.79289C5.10536 5.98043 5 6.23478 5 6.5V20.5C5 20.7652 5.10536 21.0196 5.29289 21.2071C5.48043 21.3946 5.73478 21.5 6 21.5H18C18.2652 21.5 18.5196 21.3946 18.7071 21.2071C18.8946 21.0196 19 20.7652 19 20.5V6.5C19 6.23478 18.8946 5.98043 18.7071 5.79289C18.5196 5.60536 18.2652 5.5 18 5.5H15" stroke="#CDB6DF" stroke-linecap="round" stroke-linejoin="round"></path>
<path d="M9 14.5L11 16.5L15 12.5M15 4.5C15 4.23478 14.8946 3.98043 14.7071 3.79289C14.5196 3.60536 14.2652 3.5 14 3.5H10C9.73478 3.5 9.48043 3.60536 9.29289 3.79289C9.10536 3.98043 9 4.23478 9 4.5V7.5H15V4.5Z" stroke="#EBEBD3" stroke-linecap="round" stroke-linejoin="round"></path>
</svg>
