<svg width="221" height="190" viewBox="0 0 221 190" fill="none" xmlns="http://www.w3.org/2000/svg">
<g clip-path="url('#clip0_145_805')">
<path d="M107.747 139.839C113.008 141.479 116.425 145.52 115.38 148.865C114.335 152.21 109.224 153.591 103.961 151.95C101.85 151.323 99.9197 150.201 98.3319 148.676L76.129 141.447L79.7465 131.11L101.251 139.334C103.425 138.981 105.653 139.155 107.747 139.839Z" fill="#FFB6B6"></path>
<path d="M60.182 63.9904C54.8879 63.3639 50.0133 66.9388 49.0271 72.1731C45.5094 90.8429 38.0381 131.215 39.022 132.198C40.3029 133.478 88.1236 147.555 88.1236 147.555L93.6742 135.611L62.0784 120.254L69.0078 75.6005C69.8875 69.9317 65.8839 64.6651 60.182 63.9904Z" fill="#E6E6E6"></path>
<path d="M117.794 159.259C112.661 161.262 107.465 160.24 106.19 156.976C104.914 153.712 108.042 149.443 113.177 147.44C115.217 146.611 117.427 146.283 119.62 146.483L141.477 138.269L145.116 148.599L123.183 155.599C121.705 157.232 119.857 158.487 117.794 159.259Z" fill="#A0616A"></path>
<path d="M149.314 70.5991C154.554 69.6186 159.658 72.8581 160.994 78.0144C165.76 96.4058 175.93 136.185 175.014 137.232C173.822 138.595 127.057 155.851 127.057 155.851L120.715 144.306L151.207 126.863L141.289 82.7755C140.03 77.1786 143.671 71.6551 149.314 70.5991Z" fill="#E6E6E6"></path>
<path d="M56.4317 66.6723L59.0359 50.411L41.4577 43.256L38.8535 67.9732L56.4317 66.6723Z" fill="#FFB6B6"></path>
<path d="M159.097 69.2318L156.493 52.9705L174.071 45.8155L176.675 70.5327L159.097 69.2318Z" fill="#A0616A"></path>
<path d="M51.9896 55.6384C61.8897 55.6384 69.9153 47.6202 69.9153 37.7291C69.9153 27.8381 61.8897 19.8199 51.9896 19.8199C42.0896 19.8199 34.064 27.8381 34.064 37.7291C34.064 47.6202 42.0896 55.6384 51.9896 55.6384Z" fill="#FFB6B6"></path>
<path d="M50.559 13.6514C51.0777 13.9539 51.7725 13.4962 51.9388 12.9196C52.1051 12.343 51.9114 11.7308 51.7192 11.1623L50.752 8.30027C50.0661 6.27045 49.3381 4.16969 47.8525 2.62473C45.6102 0.29287 42.0467 -0.300348 38.8389 0.129418C34.7194 0.681318 30.6549 2.90995 28.7394 6.59528C26.824 10.2806 27.6394 15.423 31.1005 17.7222C26.1677 23.3709 24.4482 29.6661 24.7197 37.1576C24.9912 44.649 33.1625 51.5436 38.4913 56.821C39.6813 56.1003 40.7632 52.7227 40.1088 51.4958C39.4544 50.2688 40.392 48.8473 39.5816 47.7171C38.7711 46.5869 38.0931 48.3865 38.9124 47.2627C39.4294 46.5536 37.4115 44.9222 38.18 44.4978C41.8972 42.4449 43.1336 37.8158 45.4682 34.2709C48.2842 29.9952 53.1038 27.0996 58.2043 26.6192C61.0139 26.3546 63.9815 26.8339 66.2845 28.4635C68.5874 30.0932 70.0784 33.0054 69.5443 35.7739C70.9274 34.3709 71.6158 32.3148 71.3562 30.3627C71.0965 28.4107 69.8944 26.6056 68.1926 25.6121C69.2274 22.1933 68.3409 18.2606 65.9391 15.6149C63.5373 12.9693 53.7942 13.4199 50.2878 14.1162" fill="#2F2E41"></path>
<path d="M50.0144 26.723C45.3702 27.2239 42.017 31.2431 39.1855 34.9549C37.5534 37.0942 35.8439 39.4568 35.8849 42.1464C35.9263 44.8656 37.7461 47.198 38.6157 49.775C40.0373 53.9872 38.6518 58.9987 35.2679 61.8849C38.6116 62.5188 42.2262 60.0141 42.8034 56.6631C43.4754 52.7622 40.5156 48.9972 40.8661 45.0544C41.1749 41.5808 43.9148 38.9075 46.2441 36.3103C48.5734 33.7131 50.761 30.2666 49.6894 26.9478" fill="#2F2E41"></path>
<path d="M58.4626 63.9456L38.168 58.4L17.2465 66.9316L8.28009 137.744L59.5166 139.45V128.028C59.5166 128.028 68.483 116.842 66.7751 100.631L65.0672 84.4214L58.4626 63.9456Z" fill="#E6E6E6"></path>
<path d="M67.8425 92.7397L27.7072 90.6068L16.8195 121.534C16.8195 121.534 3.36989 140.09 1.23504 153.741C-0.899814 167.391 0.381097 186.587 0.381097 186.587H64.6352L59.5166 128.028C59.5166 128.028 71.4667 102.124 70.0816 97.6454C68.6964 93.1663 67.8425 92.7397 67.8425 92.7397Z" fill="#3F3D56"></path>
<path d="M37.1006 58.6133H27.2803V94.8726H37.1006V58.6133Z" fill="#3F3D56"></path>
<path d="M67.4155 66.7183H57.5952V96.5789H67.4155V66.7183Z" fill="#3F3D56"></path>
<path d="M156.212 67.3582L176.507 61.8126L197.428 70.3442L206.395 141.157L155.158 142.863V131.441C155.158 131.441 149.917 119.764 154.945 104.257C159.855 89.1137 149.607 87.834 149.607 87.834L156.212 67.3582Z" fill="#E6E6E6"></path>
<path d="M146.832 96.1523L186.967 94.0194L197.855 124.946C197.855 124.946 204.473 146.062 206.608 159.713C208.743 173.363 214.293 190 214.293 190H150.039L148.113 133.691L146.832 96.1523Z" fill="#3F3D56"></path>
<path d="M187.394 62.0259H177.574V98.2852H187.394V62.0259Z" fill="#3F3D56"></path>
<path d="M157.079 70.131H147.259V99.9916H157.079V70.131Z" fill="#3F3D56"></path>
<path d="M163.067 58.1273C175.466 58.1273 185.518 48.0847 185.518 35.6966C185.518 23.3084 175.466 13.2659 163.067 13.2659C150.667 13.2659 140.615 23.3084 140.615 35.6966C140.615 48.0847 150.667 58.1273 163.067 58.1273Z" fill="#A0616A"></path>
<path d="M185.15 47.8647C185.15 47.8647 174.288 34.8421 169.943 35.9273C165.598 37.0125 168.314 38.6404 168.314 38.6404L157.452 26.7029C157.452 26.7029 148.762 23.4473 140.615 33.7569C140.615 33.7569 135.727 25.0751 140.615 20.1916C145.503 15.3081 147.133 15.8507 148.219 13.1377C149.305 10.4246 156.908 8.2542 156.908 8.2542C156.908 8.2542 156.472 4.34911 158.863 6.30166C161.253 8.2542 167.223 8.2542 167.223 8.2542C167.223 8.2542 167.257 6.08376 169.686 8.2542C172.115 10.4246 174.831 9.33942 174.831 9.33942C174.831 9.33942 174.831 13.095 176.732 13.1163C178.633 13.1377 181.891 10.4246 182.435 12.5951C182.978 14.7655 186.779 15.8507 187.322 22.3621C187.866 28.8734 185.15 47.8647 185.15 47.8647Z" fill="#2F2E41"></path>
<path d="M101.883 81.3437L119.266 114.174L116.883 115.434L99.5003 82.603C99.248 82.1264 99.4304 81.5349 99.9074 81.2828L100.562 80.937C101.039 80.6849 101.631 80.8672 101.883 81.3437Z" fill="#3F3D56"></path>
<path d="M130.842 126.582C126.42 125.443 121.793 127.46 119.574 131.448C116.795 136.441 113.621 140.538 114.684 130.775C115.854 120.026 109.543 111.345 114.503 108.723C119.463 106.102 124.585 114.069 132.646 121.282C140.118 127.967 135.809 127.861 130.842 126.582Z" fill="#3F3D56"></path>
<path d="M105.245 87.9854C110.258 85.6985 115.503 86.4291 116.959 89.6168C118.415 92.8045 115.531 97.2414 110.516 99.5285C108.525 100.469 106.338 100.92 104.137 100.844L82.7737 110.265L78.562 100.155L100.07 91.9405C101.454 90.2281 103.228 88.8719 105.245 87.9854Z" fill="#FFB6B6"></path>
<path d="M19.1553 63.2176C14.7944 66.2811 13.5524 72.1937 16.3146 76.7493C26.1668 92.9981 47.5727 128.045 48.962 128.121C50.7708 128.22 95.7863 106.816 95.7863 106.816L91.9408 94.2201L58.1529 103.852L33.4836 65.9784C30.3518 61.1704 23.8522 59.918 19.1553 63.2176Z" fill="#E6E6E6"></path>
<path d="M107.381 138.405L165.126 107.888L172.215 121.276C178.33 132.825 173.909 147.161 162.35 153.27L146.493 161.65C134.934 167.759 120.585 163.343 114.47 151.794L107.381 138.405Z" fill="#FDE6BD"></path>
<path d="M156.305 158.919C151.292 161.207 146.047 160.477 144.591 157.29C143.134 154.102 146.017 149.665 151.032 147.377C153.022 146.436 155.21 145.984 157.411 146.061L178.773 136.636L182.986 146.746L161.479 154.963C160.095 156.676 158.321 158.032 156.305 158.919Z" fill="#A0616A"></path>
<path d="M199.751 68.6828C205.046 68.0563 209.92 71.6312 210.906 76.8655C214.424 95.5353 221.895 135.908 220.912 136.891C219.631 138.17 171.81 152.248 171.81 152.248L166.259 140.303L197.855 124.947L190.926 80.2928C190.046 74.6241 194.05 69.3575 199.751 68.6828Z" fill="#E6E6E6"></path>
</g>
<defs>
<clipPath id="clip0_145_805">
<rect width="221" height="190" fill="white"></rect>
</clipPath>
</defs>
</svg>
