<svg width="347" height="190" viewBox="0 0 347 190" fill="none" xmlns="http://www.w3.org/2000/svg">
<g clip-path="url('#clip0_145_352')">
<path d="M46.6621 99.0312H35.557C35.1665 99.0312 34.7921 99.1865 34.5159 99.4631C34.2398 99.7396 34.0847 100.115 34.0847 100.506V105.387C34.0847 105.779 34.2398 106.154 34.5159 106.43C34.7921 106.707 35.1665 106.862 35.557 106.862H37.3973V114.177H44.8219V106.862H46.6621C47.0526 106.862 47.4271 106.707 47.7032 106.43C47.9793 106.154 48.1344 105.779 48.1344 105.387V100.506C48.1344 100.115 47.9793 99.7396 47.7032 99.4631C47.4271 99.1865 47.0526 99.0312 46.6621 99.0312Z" fill="#FDE6BD"></path>
<path d="M57.7851 143.709C50.984 133.742 47.5071 121.875 47.8526 109.808C47.8588 109.529 47.7685 109.257 47.5972 109.038C47.4259 108.819 47.184 108.665 46.9127 108.604V106.495H35.1842V108.575H35.0226C34.8572 108.575 34.6936 108.61 34.5421 108.676C34.3905 108.742 34.2542 108.839 34.1418 108.961C34.0293 109.082 33.943 109.226 33.8884 109.382C33.8337 109.538 33.8118 109.704 33.8241 109.87C34.7481 122.769 31.628 134.337 24.4638 144.574C24.0516 145.162 23.841 145.869 23.8636 146.587L25.146 186.317C25.1769 187.203 25.5482 188.043 26.1826 188.662C26.817 189.28 27.6654 189.629 28.5508 189.636H55.0788C55.9743 189.629 56.8315 189.272 57.4678 188.641C58.1042 188.01 58.4694 187.155 58.4856 186.258L58.9798 147.684C58.9944 146.268 58.5777 144.881 57.7851 143.709Z" fill="#3F3D56"></path>
<path opacity="0.2" d="M44.3472 100.622C44.3472 101.466 44.0125 102.275 43.4168 102.871C42.8211 103.468 42.0132 103.803 41.1707 103.803C40.3283 103.803 39.5203 103.468 38.9246 102.871C38.3289 102.275 37.9943 101.466 37.9943 100.622" fill="black"></path>
<path d="M53.5856 156.906H50.3733C50.0666 154.913 49.0578 153.096 47.5295 151.783C46.0011 150.47 44.054 149.748 42.0404 149.748C40.0269 149.748 38.0798 150.47 36.5514 151.783C35.0231 153.096 34.0143 154.913 33.7076 156.906H30.495C30.1532 156.906 29.8155 156.98 29.5049 157.123C29.1944 157.266 28.9184 157.474 28.6958 157.734C28.4732 157.994 28.3094 158.299 28.2155 158.628C28.1217 158.957 28.1 159.303 28.152 159.641L31.6413 182.356H51.6774L55.9157 159.718C55.9799 159.375 55.9678 159.022 55.8804 158.684C55.793 158.347 55.6323 158.032 55.4099 157.764C55.1874 157.495 54.9086 157.279 54.5933 157.131C54.278 156.983 53.934 156.906 53.5856 156.906Z" fill="#FDE6BD"></path>
<path d="M323.535 120.395L322.765 151.24L321.81 189.488H289.328L288.21 144.675L287.604 120.395H323.535Z" fill="#E6E6E6"></path>
<path d="M307.725 103.985H303.126V165.018H307.725V103.985Z" fill="#FDE6BD"></path>
<path d="M321.236 143.636L320.366 187.476H290.759L289.74 136.113C292.407 135.362 295.2 135.17 297.945 135.548C300.69 135.927 303.327 136.867 305.693 138.31C310.64 141.241 316.197 142.818 321.236 143.636Z" fill="#3F3D56"></path>
<path d="M298.088 148.571H293.868V152.798H298.088V148.571Z" fill="#E6E6E6"></path>
<path d="M300.963 139.935H296.742V144.161H300.963V139.935Z" fill="#E6E6E6"></path>
<path d="M310.025 145.914L306.635 143.396L304.121 146.791L307.511 149.309L310.025 145.914Z" fill="#E6E6E6"></path>
<path d="M317.65 153.403L314.26 150.885L311.746 154.28L315.136 156.798L317.65 153.403Z" fill="#E6E6E6"></path>
<path d="M304.715 157.721L301.325 155.203L298.811 158.598L302.201 161.116L304.715 157.721Z" fill="#E6E6E6"></path>
<path d="M314.624 138.244C315.1 138.244 315.486 137.857 315.486 137.38C315.486 136.903 315.1 136.517 314.624 136.517C314.148 136.517 313.762 136.903 313.762 137.38C313.762 137.857 314.148 138.244 314.624 138.244Z" fill="#3F3D56"></path>
<path d="M297.09 132.486C297.566 132.486 297.952 132.1 297.952 131.623C297.952 131.146 297.566 130.759 297.09 130.759C296.613 130.759 296.227 131.146 296.227 131.623C296.227 132.1 296.613 132.486 297.09 132.486Z" fill="#3F3D56"></path>
<path d="M311.75 126.441C312.226 126.441 312.612 126.054 312.612 125.577C312.612 125.1 312.226 124.713 311.75 124.713C311.273 124.713 310.887 125.1 310.887 125.577C310.887 126.054 311.273 126.441 311.75 126.441Z" fill="#3F3D56"></path>
<path d="M173.699 189.225C225.872 189.225 268.168 146.865 268.168 94.6124C268.168 42.3594 225.872 0 173.699 0C121.525 0 79.2294 42.3594 79.2294 94.6124C79.2294 146.865 121.525 189.225 173.699 189.225Z" fill="#FDE6BD"></path>
<path opacity="0.2" d="M173.699 163.67C157.746 163.67 142.287 158.13 129.955 147.995C117.624 137.859 109.183 123.755 106.071 108.085C102.959 92.4151 105.368 76.1494 112.888 62.0591C120.408 47.9689 132.574 36.926 147.312 30.812C162.05 24.698 178.449 23.8912 193.715 28.529C208.981 33.1669 222.169 42.9624 231.031 56.2467C239.894 69.5309 243.884 85.4818 242.32 101.382C240.756 117.282 233.736 132.147 222.456 143.444C216.068 149.876 208.47 154.976 200.1 158.448C191.731 161.92 182.757 163.695 173.699 163.67ZM173.699 29.8136C138.022 29.8136 108.998 58.8821 108.998 94.6124C108.998 130.342 138.022 159.411 173.699 159.411C209.375 159.411 238.399 130.342 238.399 94.6124C238.399 58.8821 209.375 29.8136 173.699 29.8136Z" fill="black"></path>
<path d="M173.699 161.541C210.606 161.541 240.526 131.576 240.526 94.6124C240.526 57.6488 210.606 27.684 173.699 27.684C136.791 27.684 106.871 57.6488 106.871 94.6124C106.871 131.576 136.791 161.541 173.699 161.541Z" fill="#3F3D56"></path>
<path d="M124.001 67.8505C123.494 66.8564 123.188 65.772 123.1 64.6592C123.012 63.5465 123.143 62.4273 123.487 61.3656C123.832 60.304 124.381 59.3206 125.105 58.4718C125.829 57.623 126.712 56.9254 127.706 56.4189C128.699 55.9124 129.782 55.6069 130.893 55.5198C132.004 55.4328 133.121 55.5659 134.181 55.9117C135.241 56.2574 136.222 56.8089 137.069 57.5347C137.916 58.2605 138.611 59.1463 139.116 60.1414L157.996 97.2729C158.503 98.267 158.809 99.3514 158.897 100.464C158.985 101.577 158.854 102.696 158.51 103.758C158.166 104.819 157.616 105.803 156.892 106.652C156.168 107.5 155.285 108.198 154.291 108.704C153.298 109.211 152.215 109.516 151.104 109.604C149.993 109.691 148.876 109.557 147.816 109.212C146.756 108.866 145.775 108.314 144.928 107.589C144.081 106.863 143.386 105.977 142.881 104.982L124.001 67.8505Z" fill="#FF6584"></path>
<path opacity="0.2" d="M126.107 71.9921L125.235 70.2783C129.584 66.8941 134.691 64.4052 140.35 62.5693L141.222 64.283C135.096 65.5605 129.885 67.9247 126.107 71.9921Z" fill="black"></path>
<path opacity="0.2" d="M130.173 79.9896L129.302 78.2758C133.651 74.8916 138.757 72.4027 144.417 70.5668L145.288 72.2806C139.163 73.5581 133.952 75.9222 130.173 79.9896Z" fill="black"></path>
<path opacity="0.2" d="M134.24 87.9871L133.368 86.2734C137.717 82.8892 142.824 80.4003 148.484 78.5643L149.355 80.2781C143.23 81.5556 138.018 83.9198 134.24 87.9871Z" fill="black"></path>
<path opacity="0.2" d="M138.306 95.9847L137.435 94.2709C141.784 90.8867 146.891 88.3978 152.55 86.5619L153.421 88.2756C147.296 89.5531 142.085 91.9173 138.306 95.9847Z" fill="black"></path>
<path opacity="0.2" d="M142.373 103.982L141.501 102.268C145.85 98.8842 150.957 96.3953 156.617 94.5594L157.488 96.2732C151.363 97.5507 146.151 99.9148 142.373 103.982Z" fill="black"></path>
<path d="M109.836 81.7511C109.329 80.757 109.023 79.6727 108.935 78.56C108.847 77.4474 108.979 76.3283 109.323 75.2667C109.667 74.2051 110.217 73.2218 110.941 72.3731C111.665 71.5244 112.548 70.8268 113.541 70.3203C114.535 69.8138 115.618 69.5083 116.729 69.4213C117.84 69.3342 118.957 69.4673 120.017 69.813C121.076 70.1586 122.057 70.71 122.904 71.4357C123.751 72.1613 124.447 73.047 124.951 74.0421L143.832 111.174C144.85 113.181 145.03 115.51 144.334 117.651C143.638 119.791 142.122 121.568 140.119 122.589C138.116 123.611 135.79 123.794 133.652 123.099C131.514 122.404 129.739 120.888 128.716 118.883L109.836 81.7511Z" fill="#FF6584"></path>
<path opacity="0.2" d="M111.942 85.8927L111.071 84.179C115.419 80.7948 120.526 78.3059 126.186 76.4699L127.057 78.1837C120.932 79.4612 115.721 81.8253 111.942 85.8927Z" fill="black"></path>
<path opacity="0.2" d="M116.008 93.8902L115.137 92.1765C119.486 88.7923 124.593 86.3034 130.252 84.4674L131.124 86.1812C124.998 87.4587 119.787 89.8229 116.008 93.8902Z" fill="black"></path>
<path opacity="0.2" d="M120.075 101.888L119.204 100.174C123.553 96.7898 128.659 94.3009 134.319 92.465L135.19 94.1787C129.065 95.4562 123.854 97.8204 120.075 101.888Z" fill="black"></path>
<path opacity="0.2" d="M124.142 109.885L123.27 108.172C127.619 104.787 132.726 102.298 138.385 100.463L139.257 102.176C133.131 103.454 127.92 105.818 124.142 109.885Z" fill="black"></path>
<path opacity="0.2" d="M128.208 117.883L127.337 116.169C131.686 112.785 136.792 110.296 142.452 108.46L143.323 110.174C137.198 111.451 131.987 113.815 128.208 117.883Z" fill="black"></path>
<path d="M218.351 96.7419L218.411 96.742C220.444 96.7591 222.436 96.1619 224.126 95.0284C225.815 93.8949 227.124 92.2777 227.883 90.3878C229.442 86.4403 230.228 82.2291 230.197 77.9841C230.091 60.0166 215.496 45.2763 197.557 45.0278C189.917 44.9207 182.475 47.4627 176.493 52.223C170.511 56.9832 166.356 63.6688 164.734 71.1464C163.111 78.624 164.12 86.4335 167.59 93.2511C171.06 100.069 176.777 105.475 183.772 108.553C185.62 109.373 187.673 109.614 189.661 109.245C191.649 108.876 193.479 107.913 194.911 106.484C197.983 103.392 201.635 100.939 205.659 99.2664C209.682 97.5943 213.995 96.7363 218.351 96.7419Z" fill="#E6E6E6"></path>
<path d="M201.341 86.7027C207.38 86.7027 212.276 81.7993 212.276 75.7507C212.276 69.7022 207.38 64.7988 201.341 64.7988C195.301 64.7988 190.405 69.7022 190.405 75.7507C190.405 81.7993 195.301 86.7027 201.341 86.7027Z" fill="#F9A825"></path>
<path d="M177.574 74.5192C178.286 74.5192 178.862 73.9415 178.862 73.229C178.862 72.5164 178.286 71.9388 177.574 71.9388C176.863 71.9388 176.286 72.5164 176.286 73.229C176.286 73.9415 176.863 74.5192 177.574 74.5192Z" fill="#3F3D56"></path>
<path d="M135.048 75.7361C135.759 75.7361 136.336 75.1584 136.336 74.4459C136.336 73.7333 135.759 73.1557 135.048 73.1557C134.336 73.1557 133.76 73.7333 133.76 74.4459C133.76 75.1584 134.336 75.7361 135.048 75.7361Z" fill="#3F3D56"></path>
<path d="M184.44 61.1482C185.151 61.1482 185.728 60.5705 185.728 59.858C185.728 59.1454 185.151 58.5678 184.44 58.5678C183.728 58.5678 183.152 59.1454 183.152 59.858C183.152 60.5705 183.728 61.1482 184.44 61.1482Z" fill="#3F3D56"></path>
<path d="M184.403 98.3363C185.115 98.3363 185.692 97.7587 185.692 97.0461C185.692 96.3336 185.115 95.756 184.403 95.756C183.692 95.756 183.115 96.3336 183.115 97.0461C183.115 97.7587 183.692 98.3363 184.403 98.3363Z" fill="#3F3D56"></path>
<path d="M209.919 58.4835C210.631 58.4835 211.207 57.9059 211.207 57.1933C211.207 56.4808 210.631 55.9031 209.919 55.9031C209.208 55.9031 208.631 56.4808 208.631 57.1933C208.631 57.9059 209.208 58.4835 209.919 58.4835Z" fill="#3F3D56"></path>
<path d="M126.689 93.773C127.4 93.773 127.977 93.1954 127.977 92.4828C127.977 91.7703 127.4 91.1926 126.689 91.1926C125.978 91.1926 125.401 91.7703 125.401 92.4828C125.401 93.1954 125.978 93.773 126.689 93.773Z" fill="#3F3D56"></path>
<path d="M136.106 112.33C136.817 112.33 137.394 111.753 137.394 111.04C137.394 110.328 136.817 109.75 136.106 109.75C135.394 109.75 134.817 110.328 134.817 111.04C134.817 111.753 135.394 112.33 136.106 112.33Z" fill="#3F3D56"></path>
<path d="M195.265 118.342C197.95 118.342 200.126 116.162 200.126 113.474C200.126 110.786 197.95 108.606 195.265 108.606C192.581 108.606 190.405 110.786 190.405 113.474C190.405 116.162 192.581 118.342 195.265 118.342Z" fill="#FF6584"></path>
<path opacity="0.2" d="M198.911 113.778C198.911 114.746 198.527 115.675 197.843 116.36C197.159 117.044 196.232 117.429 195.265 117.429C194.299 117.429 193.372 117.044 192.688 116.36C192.004 115.675 191.62 114.746 191.62 113.778" fill="black"></path>
<path opacity="0.2" d="M191.62 113.17C191.62 112.202 192.004 111.273 192.688 110.588C193.372 109.904 194.299 109.519 195.265 109.519C196.232 109.519 197.159 109.904 197.843 110.588C198.527 111.273 198.911 112.202 198.911 113.17" fill="black"></path>
<path d="M193.443 112.257C193.611 112.257 193.747 112.053 193.747 111.801C193.747 111.549 193.611 111.344 193.443 111.344C193.275 111.344 193.139 111.549 193.139 111.801C193.139 112.053 193.275 112.257 193.443 112.257Z" fill="#FF6584"></path>
<path d="M195.265 111.649C195.433 111.649 195.569 111.444 195.569 111.192C195.569 110.94 195.433 110.736 195.265 110.736C195.098 110.736 194.962 110.94 194.962 111.192C194.962 111.444 195.098 111.649 195.265 111.649Z" fill="#FF6584"></path>
<path d="M195.265 115.604C195.433 115.604 195.569 115.399 195.569 115.147C195.569 114.895 195.433 114.691 195.265 114.691C195.098 114.691 194.962 114.895 194.962 115.147C194.962 115.399 195.098 115.604 195.265 115.604Z" fill="#FF6584"></path>
<path d="M197.088 113.17C197.256 113.17 197.392 112.965 197.392 112.713C197.392 112.461 197.256 112.257 197.088 112.257C196.92 112.257 196.784 112.461 196.784 112.713C196.784 112.965 196.92 113.17 197.088 113.17Z" fill="#FF6584"></path>
<path d="M196.784 116.516C196.952 116.516 197.088 116.312 197.088 116.06C197.088 115.808 196.952 115.604 196.784 115.604C196.616 115.604 196.48 115.808 196.48 116.06C196.48 116.312 196.616 116.516 196.784 116.516Z" fill="#FF6584"></path>
<path d="M193.139 114.995C193.307 114.995 193.443 114.791 193.443 114.539C193.443 114.287 193.307 114.082 193.139 114.082C192.971 114.082 192.835 114.287 192.835 114.539C192.835 114.791 192.971 114.995 193.139 114.995Z" fill="#FF6584"></path>
<path d="M204.986 105.26C207.67 105.26 209.846 103.081 209.846 100.393C209.846 97.7043 207.67 95.525 204.986 95.525C202.302 95.525 200.126 97.7043 200.126 100.393C200.126 103.081 202.302 105.26 204.986 105.26Z" fill="#FF6584"></path>
<path opacity="0.2" d="M208.631 100.697C208.631 101.665 208.247 102.594 207.563 103.278C206.88 103.963 205.952 104.347 204.986 104.347C204.019 104.347 203.092 103.963 202.408 103.278C201.725 102.594 201.341 101.665 201.341 100.697" fill="black"></path>
<path opacity="0.2" d="M201.341 100.088C201.341 99.1201 201.725 98.1916 202.408 97.5069C203.092 96.8223 204.019 96.4377 204.986 96.4377C205.952 96.4377 206.88 96.8223 207.563 97.5069C208.247 98.1916 208.631 99.1201 208.631 100.088" fill="black"></path>
<path d="M203.163 99.1757C203.331 99.1757 203.467 98.9714 203.467 98.7193C203.467 98.4673 203.331 98.263 203.163 98.263C202.995 98.263 202.859 98.4673 202.859 98.7193C202.859 98.9714 202.995 99.1757 203.163 99.1757Z" fill="#FF6584"></path>
<path d="M204.986 98.5672C205.154 98.5672 205.29 98.3629 205.29 98.1109C205.29 97.8589 205.154 97.6546 204.986 97.6546C204.818 97.6546 204.682 97.8589 204.682 98.1109C204.682 98.3629 204.818 98.5672 204.986 98.5672Z" fill="#FF6584"></path>
<path d="M204.986 102.522C205.154 102.522 205.29 102.318 205.29 102.066C205.29 101.814 205.154 101.609 204.986 101.609C204.818 101.609 204.682 101.814 204.682 102.066C204.682 102.318 204.818 102.522 204.986 102.522Z" fill="#FF6584"></path>
<path d="M206.808 100.088C206.976 100.088 207.112 99.884 207.112 99.632C207.112 99.38 206.976 99.1757 206.808 99.1757C206.641 99.1757 206.505 99.38 206.505 99.632C206.505 99.884 206.641 100.088 206.808 100.088Z" fill="#FF6584"></path>
<path d="M206.505 103.435C206.672 103.435 206.808 103.23 206.808 102.978C206.808 102.726 206.672 102.522 206.505 102.522C206.337 102.522 206.201 102.726 206.201 102.978C206.201 103.23 206.337 103.435 206.505 103.435Z" fill="#FF6584"></path>
<path d="M202.859 101.914C203.027 101.914 203.163 101.709 203.163 101.457C203.163 101.205 203.027 101.001 202.859 101.001C202.692 101.001 202.556 101.205 202.556 101.457C202.556 101.709 202.692 101.914 202.859 101.914Z" fill="#FF6584"></path>
<path d="M214.706 111.953C217.39 111.953 219.566 109.774 219.566 107.085C219.566 104.397 217.39 102.218 214.706 102.218C212.022 102.218 209.846 104.397 209.846 107.085C209.846 109.774 212.022 111.953 214.706 111.953Z" fill="#FDE6BD"></path>
<path opacity="0.2" d="M218.351 107.39C218.351 108.358 217.967 109.286 217.284 109.971C216.6 110.656 215.673 111.04 214.706 111.04C213.739 111.04 212.812 110.656 212.129 109.971C211.445 109.286 211.061 108.358 211.061 107.39" fill="black"></path>
<path opacity="0.2" d="M211.061 106.781C211.061 105.813 211.445 104.884 212.129 104.2C212.812 103.515 213.739 103.131 214.706 103.131C215.673 103.131 216.6 103.515 217.284 104.2C217.967 104.884 218.351 105.813 218.351 106.781" fill="black"></path>
<path d="M212.883 105.869C213.051 105.869 213.187 105.664 213.187 105.412C213.187 105.16 213.051 104.956 212.883 104.956C212.716 104.956 212.58 105.16 212.58 105.412C212.58 105.664 212.716 105.869 212.883 105.869Z" fill="#FDE6BD"></path>
<path d="M214.706 105.26C214.874 105.26 215.01 105.056 215.01 104.804C215.01 104.552 214.874 104.347 214.706 104.347C214.538 104.347 214.402 104.552 214.402 104.804C214.402 105.056 214.538 105.26 214.706 105.26Z" fill="#FDE6BD"></path>
<path d="M214.706 109.215C214.874 109.215 215.01 109.011 215.01 108.759C215.01 108.507 214.874 108.302 214.706 108.302C214.538 108.302 214.402 108.507 214.402 108.759C214.402 109.011 214.538 109.215 214.706 109.215Z" fill="#FDE6BD"></path>
<path d="M216.529 106.781C216.696 106.781 216.832 106.577 216.832 106.325C216.832 106.073 216.696 105.868 216.529 105.868C216.361 105.868 216.225 106.073 216.225 106.325C216.225 106.577 216.361 106.781 216.529 106.781Z" fill="#FDE6BD"></path>
<path d="M216.225 110.128C216.393 110.128 216.529 109.923 216.529 109.671C216.529 109.419 216.393 109.215 216.225 109.215C216.057 109.215 215.921 109.419 215.921 109.671C215.921 109.923 216.057 110.128 216.225 110.128Z" fill="#FDE6BD"></path>
<path d="M212.58 108.606C212.748 108.606 212.884 108.402 212.884 108.15C212.884 107.898 212.748 107.694 212.58 107.694C212.412 107.694 212.276 107.898 212.276 108.15C212.276 108.402 212.412 108.606 212.58 108.606Z" fill="#FDE6BD"></path>
<path d="M190.405 112.561C193.09 112.561 195.265 110.382 195.265 107.694C195.265 105.006 193.09 102.826 190.405 102.826C187.721 102.826 185.545 105.006 185.545 107.694C185.545 110.382 187.721 112.561 190.405 112.561Z" fill="#FDE6BD"></path>
<path opacity="0.2" d="M194.05 107.998C194.05 108.966 193.666 109.895 192.983 110.579C192.299 111.264 191.372 111.649 190.405 111.649C189.439 111.649 188.511 111.264 187.828 110.579C187.144 109.895 186.76 108.966 186.76 107.998" fill="black"></path>
<path opacity="0.2" d="M186.76 107.39C186.76 106.421 187.144 105.493 187.828 104.808C188.511 104.124 189.439 103.739 190.405 103.739C191.372 103.739 192.299 104.124 192.983 104.808C193.666 105.493 194.05 106.421 194.05 107.39" fill="black"></path>
<path d="M188.583 106.477C188.751 106.477 188.887 106.273 188.887 106.021C188.887 105.769 188.751 105.564 188.583 105.564C188.415 105.564 188.279 105.769 188.279 106.021C188.279 106.273 188.415 106.477 188.583 106.477Z" fill="#FDE6BD"></path>
<path d="M190.405 105.869C190.573 105.869 190.709 105.664 190.709 105.412C190.709 105.16 190.573 104.956 190.405 104.956C190.238 104.956 190.102 105.16 190.102 105.412C190.102 105.664 190.238 105.869 190.405 105.869Z" fill="#FDE6BD"></path>
<path d="M190.405 109.823C190.573 109.823 190.709 109.619 190.709 109.367C190.709 109.115 190.573 108.911 190.405 108.911C190.238 108.911 190.102 109.115 190.102 109.367C190.102 109.619 190.238 109.823 190.405 109.823Z" fill="#FDE6BD"></path>
<path d="M192.228 107.39C192.396 107.39 192.532 107.185 192.532 106.933C192.532 106.681 192.396 106.477 192.228 106.477C192.06 106.477 191.924 106.681 191.924 106.933C191.924 107.185 192.06 107.39 192.228 107.39Z" fill="#FDE6BD"></path>
<path d="M191.924 110.736C192.092 110.736 192.228 110.532 192.228 110.28C192.228 110.028 192.092 109.823 191.924 109.823C191.756 109.823 191.62 110.028 191.62 110.28C191.62 110.532 191.756 110.736 191.924 110.736Z" fill="#FDE6BD"></path>
<path d="M188.279 109.215C188.447 109.215 188.583 109.011 188.583 108.759C188.583 108.507 188.447 108.302 188.279 108.302C188.111 108.302 187.975 108.507 187.975 108.759C187.975 109.011 188.111 109.215 188.279 109.215Z" fill="#FDE6BD"></path>
<path d="M201.341 114.691C204.025 114.691 206.201 112.512 206.201 109.823C206.201 107.135 204.025 104.956 201.341 104.956C198.656 104.956 196.48 107.135 196.48 109.823C196.48 112.512 198.656 114.691 201.341 114.691Z" fill="#FDE6BD"></path>
<path opacity="0.2" d="M204.986 110.128C204.986 110.607 204.891 111.082 204.708 111.525C204.525 111.968 204.257 112.37 203.918 112.709C203.58 113.048 203.178 113.317 202.736 113.5C202.293 113.684 201.819 113.778 201.341 113.778C200.862 113.778 200.388 113.684 199.946 113.5C199.504 113.317 199.102 113.048 198.763 112.709C198.425 112.37 198.156 111.968 197.973 111.525C197.79 111.082 197.696 110.607 197.696 110.128" fill="black"></path>
<path opacity="0.2" d="M197.696 109.519C197.696 109.04 197.79 108.565 197.973 108.122C198.156 107.679 198.425 107.277 198.763 106.938C199.102 106.599 199.504 106.33 199.946 106.146C200.388 105.963 200.862 105.868 201.341 105.868C201.819 105.868 202.293 105.963 202.736 106.146C203.178 106.33 203.58 106.599 203.918 106.938C204.257 107.277 204.525 107.679 204.708 108.122C204.891 108.565 204.986 109.04 204.986 109.519" fill="black"></path>
<path d="M199.518 108.606C199.686 108.606 199.822 108.402 199.822 108.15C199.822 107.898 199.686 107.694 199.518 107.694C199.35 107.694 199.214 107.898 199.214 108.15C199.214 108.402 199.35 108.606 199.518 108.606Z" fill="#FDE6BD"></path>
<path d="M201.341 107.998C201.508 107.998 201.644 107.794 201.644 107.542C201.644 107.29 201.508 107.085 201.341 107.085C201.173 107.085 201.037 107.29 201.037 107.542C201.037 107.794 201.173 107.998 201.341 107.998Z" fill="#FDE6BD"></path>
<path d="M201.341 111.953C201.508 111.953 201.644 111.749 201.644 111.497C201.644 111.245 201.508 111.04 201.341 111.04C201.173 111.04 201.037 111.245 201.037 111.497C201.037 111.749 201.173 111.953 201.341 111.953Z" fill="#FDE6BD"></path>
<path d="M203.163 109.519C203.331 109.519 203.467 109.315 203.467 109.063C203.467 108.811 203.331 108.606 203.163 108.606C202.995 108.606 202.859 108.811 202.859 109.063C202.859 109.315 202.995 109.519 203.163 109.519Z" fill="#FDE6BD"></path>
<path d="M202.859 112.866C203.027 112.866 203.163 112.661 203.163 112.409C203.163 112.157 203.027 111.953 202.859 111.953C202.692 111.953 202.556 112.157 202.556 112.409C202.556 112.661 202.692 112.866 202.859 112.866Z" fill="#FDE6BD"></path>
<path d="M199.214 111.344C199.382 111.344 199.518 111.14 199.518 110.888C199.518 110.636 199.382 110.432 199.214 110.432C199.047 110.432 198.911 110.636 198.911 110.888C198.911 111.14 199.047 111.344 199.214 111.344Z" fill="#FDE6BD"></path>
<path d="M208.935 119.863C211.619 119.863 213.795 117.683 213.795 114.995C213.795 112.307 211.619 110.128 208.935 110.128C206.25 110.128 204.074 112.307 204.074 114.995C204.074 117.683 206.25 119.863 208.935 119.863Z" fill="#FF6584"></path>
<path opacity="0.2" d="M212.58 115.299C212.58 116.268 212.196 117.196 211.512 117.881C210.829 118.565 209.901 118.95 208.935 118.95C207.968 118.95 207.041 118.565 206.357 117.881C205.674 117.196 205.29 116.268 205.29 115.299" fill="black"></path>
<path opacity="0.2" d="M205.29 114.691C205.29 113.723 205.674 112.794 206.357 112.109C207.041 111.425 207.968 111.04 208.935 111.04C209.901 111.04 210.829 111.425 211.512 112.109C212.196 112.794 212.58 113.723 212.58 114.691" fill="black"></path>
<path d="M207.112 113.778C207.28 113.778 207.416 113.574 207.416 113.322C207.416 113.07 207.28 112.866 207.112 112.866C206.944 112.866 206.808 113.07 206.808 113.322C206.808 113.574 206.944 113.778 207.112 113.778Z" fill="#FF6584"></path>
<path d="M208.935 113.17C209.102 113.17 209.238 112.965 209.238 112.713C209.238 112.461 209.102 112.257 208.935 112.257C208.767 112.257 208.631 112.461 208.631 112.713C208.631 112.965 208.767 113.17 208.935 113.17Z" fill="#FF6584"></path>
<path d="M208.935 117.125C209.102 117.125 209.238 116.92 209.238 116.668C209.238 116.416 209.102 116.212 208.935 116.212C208.767 116.212 208.631 116.416 208.631 116.668C208.631 116.92 208.767 117.125 208.935 117.125Z" fill="#FF6584"></path>
<path d="M210.757 114.691C210.925 114.691 211.061 114.487 211.061 114.235C211.061 113.983 210.925 113.778 210.757 113.778C210.589 113.778 210.453 113.983 210.453 114.235C210.453 114.487 210.589 114.691 210.757 114.691Z" fill="#FF6584"></path>
<path d="M210.453 118.037C210.621 118.037 210.757 117.833 210.757 117.581C210.757 117.329 210.621 117.125 210.453 117.125C210.286 117.125 210.15 117.329 210.15 117.581C210.15 117.833 210.286 118.037 210.453 118.037Z" fill="#FF6584"></path>
<path d="M206.808 116.516C206.976 116.516 207.112 116.312 207.112 116.06C207.112 115.808 206.976 115.604 206.808 115.604C206.641 115.604 206.505 115.808 206.505 116.06C206.505 116.312 206.641 116.516 206.808 116.516Z" fill="#FF6584"></path>
<path d="M146.433 97.7279C147.145 97.7279 147.722 97.1502 147.722 96.4377C147.722 95.7251 147.145 95.1475 146.433 95.1475C145.722 95.1475 145.145 95.7251 145.145 96.4377C145.145 97.1502 145.722 97.7279 146.433 97.7279Z" fill="#3F3D56"></path>
<path d="M181.45 143.268L150.511 134.675L151.696 130.266L182.635 138.86L181.45 143.268Z" fill="#F9A825"></path>
<path d="M176.915 141.795C166.32 143.826 155.436 143.826 144.841 141.795V137.224C155.46 138.987 166.296 138.987 176.915 137.224V141.795Z" fill="#F9A825"></path>
<path d="M180.212 128.084C169.617 130.115 158.734 130.115 148.139 128.084V123.513C158.757 125.276 169.593 125.276 180.212 123.513V128.084Z" fill="#F9A825"></path>
<path d="M191.302 133.568C180.708 135.599 169.824 135.599 159.229 133.568V128.998C169.848 130.76 180.684 130.76 191.302 128.998V133.568Z" fill="#F9A825"></path>
<path d="M194 138.748C183.405 140.779 172.522 140.779 161.927 138.748V134.177C172.546 135.94 183.382 135.94 194 134.177V138.748Z" fill="#F9A825"></path>
<path d="M203.406 145.516L171.763 150.84L171.029 146.33L202.671 141.007L203.406 145.516Z" fill="#F9A825"></path>
<path d="M198.679 146.102C189.906 152.436 180.019 157.054 169.536 159.715L167.658 155.563C178.049 152.648 187.894 148.05 196.802 141.949L198.679 146.102Z" fill="#F9A825"></path>
<path d="M196.043 132.244C187.27 138.577 177.382 143.196 166.899 145.857L165.022 141.704C175.413 138.79 185.258 134.192 194.165 128.091L196.043 132.244Z" fill="#F9A825"></path>
<path d="M208.373 132.52C199.6 138.854 189.713 143.472 179.23 146.133L177.353 141.98C187.744 139.066 197.589 134.468 206.496 128.367L208.373 132.52Z" fill="#F9A825"></path>
<path d="M212.952 136.082C204.179 142.415 194.292 147.034 183.809 149.695L181.932 145.542C192.323 142.628 202.167 138.029 211.075 131.929L212.952 136.082Z" fill="#F9A825"></path>
<path d="M174.61 127.164H173.091V128.685H174.61V127.164Z" fill="#00BF71"></path>
<path d="M179.166 153.631H177.647V155.152H179.166V153.631Z" fill="#00BF71"></path>
<path d="M154.865 127.164H153.347V128.685H154.865V127.164Z" fill="#00BF71"></path>
<path d="M190.102 146.026H188.583V147.547H190.102V146.026Z" fill="#00BF71"></path>
<path d="M191.013 137.203H189.494V138.724H191.013V137.203Z" fill="#00BF71"></path>
<path d="M165.959 133.038L164.199 131.843L163.517 132.85L165.276 134.045L165.959 133.038Z" fill="#00BF71"></path>
<path d="M183.88 136.385L182.121 135.189L181.439 136.196L183.198 137.392L183.88 136.385Z" fill="#00BF71"></path>
<path d="M162.01 142.165L160.25 140.969L159.568 141.976L161.328 143.172L162.01 142.165Z" fill="#00BF71"></path>
<path d="M173.149 142.076L174.343 140.314L173.337 139.631L172.143 141.393L173.149 142.076Z" fill="#00BF71"></path>
<path d="M181.35 144.206L182.544 142.444L181.539 141.761L180.345 143.523L181.35 144.206Z" fill="#00BF71"></path>
<path d="M203.223 136.904L204.417 135.142L203.411 134.459L202.217 136.221L203.223 136.904Z" fill="#00BF71"></path>
<path d="M347 189.123H0V190H347V189.123Z" fill="#3F3D56"></path>
</g>
<defs>
<clipPath id="clip0_145_352">
<rect width="347" height="190" fill="white"></rect>
</clipPath>
</defs>
</svg>
