<svg width="195" height="188" viewBox="0 0 195 188" fill="none" xmlns="http://www.w3.org/2000/svg">
<g clip-path="url('#clip0_29_218')">
<path d="M112.804 183.303L57.9008 183.485C43.335 179.109 31.4013 163.91 31.3258 141.122C31.3112 137.689 31.5705 134.261 32.1014 130.869L76.3234 120.936L110.438 113.273C112.952 115.524 115.294 117.959 117.446 120.558L84.8243 137.781L69.4353 145.906L86.7279 139.941L122.62 127.56C124.858 130.982 126.852 134.557 128.588 138.259L117.758 149.449L130.009 141.43C130.061 141.553 130.113 141.676 130.165 141.8C137.929 160.228 128.296 183.252 112.804 183.303Z" fill="#F2F2F2"></path>
<path d="M103.781 108.116C95.4787 110.5 85.271 113.512 74.7759 116.643C59.6014 121.171 43.8268 125.95 32.3423 129.443L32.3498 129.402C32.7743 126.951 33.7723 124.635 35.2624 122.643C43.7698 111.583 54.6025 103.857 66.6589 100.988H66.66C70.0502 100.18 73.5225 99.7654 77.0079 99.7538C86.6 99.7221 95.6857 102.73 103.781 108.116Z" fill="#F2F2F2"></path>
<path d="M68.2003 188C88.8371 188 105.567 185.587 105.567 182.611C105.567 179.635 88.8371 177.223 68.2003 177.223C47.5635 177.223 30.834 179.635 30.834 182.611C30.834 185.587 47.5635 188 68.2003 188Z" fill="#3F3D56"></path>
<path d="M54.9067 132.318V140.701L60.8949 141.419L64.4878 136.869L61.6135 131.121L54.9067 132.318Z" fill="#FBBEBE"></path>
<path d="M77.6619 166.805L80.7757 175.187L86.5244 173.271L82.2129 166.326L77.6619 166.805Z" fill="#FBBEBE"></path>
<path d="M70.4758 95.4369C70.4758 95.4369 39.3372 92.3236 40.2953 100.945C41.2535 109.567 54.9065 134.234 54.9065 134.234L64.0086 132.558C64.0086 132.558 57.5413 122.499 58.0204 119.147C58.4994 115.794 56.5832 111.243 56.5832 111.243L61.1343 111.962L63.7691 116.033L69.2782 144.293L77.6617 169.679L83.8894 168.003C83.8894 168.003 80.536 157.465 81.4941 154.112C82.4522 150.759 76.9431 137.827 76.9431 137.827L80.7755 115.315C80.7755 115.315 88.2009 113.159 86.0451 105.735C83.8894 98.3108 70.4758 95.4369 70.4758 95.4369Z" fill="#2F2E41"></path>
<path d="M57.5414 138.066C57.5414 138.066 53.9485 135.192 54.188 136.39C54.3235 137.263 54.3235 138.151 54.188 139.024L50.8346 146.448C50.8346 146.448 42.6907 153.873 50.1161 154.112C57.5414 154.352 61.3739 146.688 61.3739 146.688C61.3739 146.688 71.6736 139.024 70.4759 137.827C69.2783 136.629 62.9927 133.879 62.9927 133.879C62.9927 133.879 60.8948 139.743 57.5414 138.066Z" fill="#2F2E41"></path>
<path d="M80.536 171.355C80.536 171.355 77.1827 168.242 76.9431 169.679C76.7036 171.116 76.4641 173.032 76.4641 173.032L71.434 177.822C71.434 177.822 64.2481 184.767 70.4759 185.006C72.2758 185.088 74.071 184.764 75.7292 184.059C77.3874 183.355 78.8664 182.287 80.057 180.935C80.057 180.935 89.159 179.019 88.68 177.582C88.2009 176.145 85.7989 170.586 84.7244 170.372C83.6499 170.158 83.4104 173.271 80.536 171.355Z" fill="#2F2E41"></path>
<path d="M69.0386 60.9503C73.1396 60.9503 76.464 57.6264 76.464 53.5261C76.464 49.4258 73.1396 46.1019 69.0386 46.1019C64.9377 46.1019 61.6133 49.4258 61.6133 53.5261C61.6133 57.6264 64.9377 60.9503 69.0386 60.9503Z" fill="#FBBEBE"></path>
<path d="M65.6853 58.5554C65.6853 58.5554 68.7992 66.9376 68.5596 67.6561C68.3201 68.3745 78.3803 61.6688 78.3803 61.6688C78.3803 61.6688 74.0688 60.7108 74.0688 56.879L65.6853 58.5554Z" fill="#FBBEBE"></path>
<path d="M92.9914 70.7694C92.9914 70.7694 97.3029 75.0803 98.0215 76.5172C98.7401 77.9541 115.028 96.1554 115.028 96.1554C115.028 96.1554 125.807 108.848 121.495 109.088C117.184 109.327 111.675 99.0293 111.675 99.0293C111.675 99.0293 96.3448 87.7732 95.6262 85.1389L86.7637 76.0382L92.9914 70.7694Z" fill="#FBBEBE"></path>
<path d="M70.4758 65.7401H67.841L64.2481 71.4879C64.2481 71.4879 60.6552 74.6013 63.29 81.0675C65.9248 87.5338 68.0805 95.6764 68.0805 95.6764C68.0805 95.6764 75.7454 96.6344 77.1826 99.0293C78.6198 101.424 86.7637 109.088 86.7637 109.088C86.7637 109.088 88.2009 104.059 87.7218 96.6344C87.2428 89.2102 87.7218 77.9541 87.7218 77.9541L87.2428 63.1057C87.2428 63.1057 77.9914 60.9617 77.3475 61.3153C76.7035 61.6688 70.4758 65.7401 70.4758 65.7401Z" fill="#575A89"></path>
<path d="M83.6499 63.8242L87.2428 63.1057C87.2428 63.1057 91.0753 65.5006 94.6682 72.4459C94.6682 72.4459 87.0033 77.4752 86.2847 77.2357C85.5661 76.9962 83.6499 63.8242 83.6499 63.8242Z" fill="#575A89"></path>
<path d="M61.6134 80.1095C61.6134 80.1095 56.1042 88.9707 57.7809 92.3236C59.4576 95.6764 61.6134 95.4369 61.6134 95.4369C61.6134 95.4369 65.6853 94.7185 65.6853 91.3656C65.6853 88.0127 67.362 87.7732 67.362 87.7732C67.362 87.7732 77.9013 79.1516 73.8293 79.1516C69.7573 79.1516 64.2482 85.1388 64.2482 85.1388L64.0086 79.6306L61.6134 80.1095Z" fill="#FBBEBE"></path>
<path d="M65.2063 71.2484C65.2063 71.2484 61.6134 72.2064 60.8948 76.0382C60.1762 79.8701 60.4158 81.786 60.4158 81.786L65.2063 81.307V71.2484Z" fill="#575A89"></path>
<path opacity="0.1" d="M58.4995 90.4076C58.4995 90.4076 62.332 85.3783 62.811 86.0968L58.4995 90.4076Z" fill="black"></path>
<path d="M72.8108 44.5382C72.8108 44.5382 68.873 40.6044 65.082 43.2457C61.291 45.8869 59.5256 48.4026 59.9487 50.111C60.3719 51.8194 61.5537 54.1802 61.5537 54.1802C61.5537 54.1802 60.765 50.6386 63.9521 50.2917C67.1393 49.9448 71.4969 47.716 71.4969 47.716L74.6485 54.0115C74.6485 54.0115 75.0319 52.5235 76.2129 52.9166C77.3939 53.3096 76.2671 44.9207 72.8108 44.5382Z" fill="#2F2E41"></path>
<path d="M45.8651 176.24C45.8651 179.732 43.789 180.951 41.2277 180.951C41.1684 180.951 41.1092 180.95 41.05 180.949C40.9313 180.946 40.8138 180.941 40.6977 180.933C38.3862 180.769 36.5903 179.487 36.5903 176.24C36.5903 172.879 40.8858 168.638 41.2085 168.324L41.2091 168.324C41.2215 168.311 41.2277 168.305 41.2277 168.305C41.2277 168.305 45.8651 172.748 45.8651 176.24Z" fill="#FDE6BD"></path>
<path d="M41.0587 180.417L42.7549 178.047L41.0545 180.677L41.05 180.949C40.9313 180.946 40.8138 180.941 40.6977 180.933L40.8805 177.439L40.879 177.412L40.8822 177.407L40.8994 177.077L39.1948 174.441L40.9048 176.83L40.9087 176.9L41.0469 174.26L39.5876 171.536L41.0647 173.797L41.2085 168.324L41.2091 168.305V168.323L41.1851 172.639L42.6379 170.928L41.1791 173.011L41.1407 175.374L42.4972 173.106L41.1351 175.722L41.1136 177.036L43.0829 173.879L41.1062 177.494L41.0587 180.417Z" fill="#3F3D56"></path>
<path d="M151.215 52.6078C151.215 52.6078 149.742 57.1893 147.442 63.7719C146.698 65.9101 145.865 68.2574 144.968 70.728C143.717 74.1684 142.339 77.8486 140.896 81.5289C140.008 83.7939 139.097 86.0555 138.175 88.2657C133.219 100.112 127.941 110.375 124.483 110.518C116.714 110.841 100.071 58.8649 98.2548 53.1218C98.1486 52.786 98.0938 52.6078 98.0938 52.6078H151.215Z" fill="#3F3D56"></path>
<path opacity="0.1" d="M147.442 63.7719C146.698 65.9101 145.865 68.2574 144.968 70.728L124.387 52.6078H134.761L147.442 63.7719Z" fill="black"></path>
<path opacity="0.1" d="M140.896 81.5289C140.008 83.7939 139.097 86.0555 138.175 88.2657L98.2548 53.1218C98.1486 52.786 98.0938 52.6078 98.0938 52.6078H108.046L140.896 81.5289Z" fill="black"></path>
<path d="M125.576 6.57431C123.14 8.50304 119.29 7.77373 116.949 9.81645C115.348 11.2137 114.921 13.603 115.358 15.6824C115.795 17.7617 116.956 19.6068 118.124 21.3819C118.93 22.607 119.766 23.8417 120.898 24.7735C122.481 26.0762 124.513 26.6826 126.505 27.1697C130.843 28.23 135.272 28.872 139.732 29.0867C141.721 29.1823 143.974 29.0867 145.314 27.6141C146.094 26.7566 146.408 25.5814 146.637 24.4448C146.994 22.6669 147.193 20.7528 146.454 19.0967C145.846 17.7355 144.677 16.7152 143.493 15.8093C139.779 12.968 135.405 10.6157 133.139 6.52608C132.238 4.90052 131.682 3.01683 130.316 1.75559C128.537 0.111678 124.576 -0.560518 122.48 0.537644C122.804 1.2757 127.036 5.4181 125.576 6.57431Z" fill="#FDE6BD"></path>
<path d="M105.112 25.7438C104.39 28.2472 103.725 30.8959 104.333 33.4294C105.134 36.7697 108.064 39.2714 111.277 40.4873C114.49 41.7033 117.994 41.8453 121.427 41.9735L139.403 42.6448C141.662 42.7291 143.965 42.8217 146.088 43.5981C147.838 44.2381 149.917 45.2919 151.376 44.133C152.038 43.6073 152.335 42.7563 152.57 41.9446C153.334 39.3034 153.761 36.4031 152.734 33.8528C151.557 30.9304 148.653 29.0101 145.639 28.0922C142.625 27.1743 139.432 27.0849 136.3 26.7382C133.123 26.3865 129.982 25.7647 126.91 24.8798C124.342 24.1398 121.741 23.1634 119.841 21.2839C118.814 20.2672 118.036 19.0273 117.067 17.9542C111.52 11.8074 106.476 21.0132 105.112 25.7438Z" fill="#FDE6BD"></path>
<path d="M101.162 37.2448C99.4137 38.0278 97.8971 39.2489 96.7593 40.79C95.6215 42.331 94.901 44.1397 94.6676 46.0409C94.4342 47.9421 94.6957 49.8714 95.427 51.6418C96.1582 53.4123 97.3343 54.964 98.8413 56.1465C101.578 58.2943 105.16 59.0412 108.631 59.2912C112.02 59.5354 115.423 59.3674 118.816 59.1994L148.84 57.7125C150.6 57.6254 152.592 57.4229 153.666 56.0264C154.468 54.9842 154.515 53.5467 154.324 52.2458C153.635 47.5663 150.101 43.4234 145.588 42.0052C143.886 41.4703 142.094 41.3011 140.317 41.1349L127.447 39.9308C125.714 39.7687 123.971 39.6047 122.291 39.1482C117.201 37.7649 112.653 33.7262 107.413 34.3242C103.858 34.7299 100.931 37.2184 98.3483 39.6947" fill="#FDE6BD"></path>
<path opacity="0.1" d="M117.972 16.9705C117.972 16.9705 122.172 24.5536 143.72 27.6154L117.972 16.9705Z" fill="black"></path>
<path opacity="0.1" d="M106.053 36.8318C106.053 36.8318 113.859 44.7265 146.075 44.7265L106.053 36.8318Z" fill="black"></path>
<path d="M124.141 13.2012C125.276 13.2012 126.197 12.8943 126.197 12.5158C126.197 12.1373 125.276 11.8305 124.141 11.8305C123.005 11.8305 122.084 12.1373 122.084 12.5158C122.084 12.8943 123.005 13.2012 124.141 13.2012Z" fill="#3F3D56"></path>
<path d="M130.995 17.6558C132.131 17.6558 133.051 17.349 133.051 16.9705C133.051 16.592 132.131 16.2852 130.995 16.2852C129.859 16.2852 128.939 16.592 128.939 16.9705C128.939 17.349 129.859 17.6558 130.995 17.6558Z" fill="#3F3D56"></path>
<path d="M138.878 22.4532C140.013 22.4532 140.934 22.1463 140.934 21.7678C140.934 21.3893 140.013 21.0825 138.878 21.0825C137.742 21.0825 136.821 21.3893 136.821 21.7678C136.821 22.1463 137.742 22.4532 138.878 22.4532Z" fill="#3F3D56"></path>
<path d="M111.46 24.5092C112.596 24.5092 113.516 24.2023 113.516 23.8238C113.516 23.4453 112.596 23.1385 111.46 23.1385C110.324 23.1385 109.404 23.4453 109.404 23.8238C109.404 24.2023 110.324 24.5092 111.46 24.5092Z" fill="#3F3D56"></path>
<path d="M128.939 31.0198C130.074 31.0198 130.995 30.713 130.995 30.3345C130.995 29.956 130.074 29.6492 128.939 29.6492C127.803 29.6492 126.882 29.956 126.882 30.3345C126.882 30.713 127.803 31.0198 128.939 31.0198Z" fill="#3F3D56"></path>
<path d="M104.263 44.3838C105.399 44.3838 106.319 44.077 106.319 43.6985C106.319 43.32 105.399 43.0132 104.263 43.0132C103.127 43.0132 102.207 43.32 102.207 43.6985C102.207 44.077 103.127 44.3838 104.263 44.3838Z" fill="#3F3D56"></path>
<path d="M117.286 31.7052C118.422 31.7052 119.342 31.3983 119.342 31.0198C119.342 30.6413 118.422 30.3345 117.286 30.3345C116.15 30.3345 115.23 30.6413 115.23 31.0198C115.23 31.3983 116.15 31.7052 117.286 31.7052Z" fill="#3F3D56"></path>
<path d="M109.404 49.5238C110.539 49.5238 111.46 49.217 111.46 48.8385C111.46 48.46 110.539 48.1531 109.404 48.1531C108.268 48.1531 107.347 48.46 107.347 48.8385C107.347 49.217 108.268 49.5238 109.404 49.5238Z" fill="#3F3D56"></path>
<path d="M122.77 46.4398C123.905 46.4398 124.826 46.133 124.826 45.7545C124.826 45.376 123.905 45.0692 122.77 45.0692C121.634 45.0692 120.713 45.376 120.713 45.7545C120.713 46.133 121.634 46.4398 122.77 46.4398Z" fill="#3F3D56"></path>
<path d="M130.824 62.8878C132.054 62.8878 133.051 60.8167 133.051 58.2618C133.051 55.7069 132.054 53.6358 130.824 53.6358C129.593 53.6358 128.596 55.7069 128.596 58.2618C128.596 60.8167 129.593 62.8878 130.824 62.8878Z" fill="#FDE6BD"></path>
<path d="M133.565 64.6011C134.796 64.6011 135.793 62.53 135.793 59.9751C135.793 57.4203 134.796 55.3492 133.565 55.3492C132.335 55.3492 131.338 57.4203 131.338 59.9751C131.338 62.53 132.335 64.6011 133.565 64.6011Z" fill="#FDE6BD"></path>
<path d="M128.995 104.581C129.013 104.49 129.475 102.302 131.892 99.1103C134.109 96.1822 138.47 91.825 146.656 87.6964C162.165 79.8751 165.635 65.1809 165.668 65.0332L166.082 65.1267C166.074 65.1642 165.206 68.9262 162.412 73.608C158.705 79.8117 153.306 84.8303 146.848 88.0756C131.366 95.8835 129.429 104.578 129.411 104.665L128.995 104.581Z" fill="#3F3D56"></path>
<path d="M166.461 63.4611C167.986 63.4611 169.222 62.2254 169.222 60.7011C169.222 59.1768 167.986 57.9411 166.461 57.9411C164.937 57.9411 163.701 59.1768 163.701 60.7011C163.701 62.2254 164.937 63.4611 166.461 63.4611Z" fill="#FDE6BD"></path>
<path d="M165.915 76.8525C167.44 76.8525 168.675 75.6168 168.675 74.0925C168.675 72.5682 167.44 71.3325 165.915 71.3325C164.39 71.3325 163.155 72.5682 163.155 74.0925C163.155 75.6168 164.39 76.8525 165.915 76.8525Z" fill="#3F3D56"></path>
<path d="M156.935 77.7924C158.46 77.7924 159.695 76.5567 159.695 75.0323C159.695 73.508 158.46 72.2723 156.935 72.2723C155.41 72.2723 154.175 73.508 154.175 75.0323C154.175 76.5567 155.41 77.7924 156.935 77.7924Z" fill="#FDE6BD"></path>
<path d="M158.331 86.9039C159.855 86.9039 161.091 85.6682 161.091 84.1439C161.091 82.6196 159.855 81.3838 158.331 81.3838C156.806 81.3838 155.57 82.6196 155.57 84.1439C155.57 85.6682 156.806 86.9039 158.331 86.9039Z" fill="#FDE6BD"></path>
<path d="M145.416 87.0909C146.94 87.0909 148.176 85.8551 148.176 84.3308C148.176 82.8065 146.94 81.5708 145.416 81.5708C143.891 81.5708 142.655 82.8065 142.655 84.3308C142.655 85.8551 143.891 87.0909 145.416 87.0909Z" fill="#3F3D56"></path>
<path d="M130.148 105.789C130.148 105.789 132.744 98.931 142.282 100.825L130.148 105.789Z" fill="#3F3D56"></path>
<path d="M127.743 103.391C127.743 103.391 131.735 97.2392 124.562 90.6742L127.743 103.391Z" fill="#3F3D56"></path>
<path d="M193.097 106.657L188.527 104.854L183.957 103.051L187.804 99.9954L191.65 96.9397L192.374 101.798L193.097 106.657Z" fill="#F2F2F2"></path>
<path d="M9.13966 75.5231L4.56995 73.7199L0 71.917L3.84657 68.8616L7.69315 65.806L8.41652 70.6645L9.13966 75.5231Z" fill="#F2F2F2"></path>
<path d="M170.342 133.24L165.772 131.437L161.202 129.634L165.049 126.579L168.895 123.523L169.619 128.382L170.342 133.24Z" fill="#F2F2F2"></path>
<path d="M195 150.186L190.684 152.532L186.368 154.878L186.494 149.968L186.619 145.058L190.81 147.622L195 150.186Z" fill="#F2F2F2"></path>
<path d="M32.3606 56.3054L28.0446 58.6517L23.7288 60.9982L23.8543 56.0879L23.9798 51.1774L28.1703 53.7414L32.3606 56.3054Z" fill="#F2F2F2"></path>
</g>
<defs>
<clipPath id="clip0_29_218">
<rect width="195" height="188" fill="white"></rect>
</clipPath>
</defs>
</svg>
