<svg width="25" height="25" viewBox="0 0 25 25" fill="none" xmlns="http://www.w3.org/2000/svg">
<path d="M21.2 5.5H17.2M19.2 3.5V7.5" stroke="#EBEBD3" stroke-linecap="round" stroke-linejoin="round"/>
<path d="M15.79 10.5C15.4295 11.3259 14.8526 12.039 14.1201 12.564C13.3877 13.0889 12.527 13.4062 11.6291 13.4822C10.7311 13.5582 9.82938 13.3901 9.01913 12.9957C8.20888 12.6013 7.52028 11.9953 7.02615 11.2417C6.53202 10.4881 6.25073 9.61502 6.21203 8.71472C6.17333 7.81442 6.37866 6.92039 6.8063 6.12719C7.23394 5.33399 7.868 4.67111 8.64142 4.20865C9.41483 3.74619 10.2989 3.50134 11.2 3.5C11.8874 3.50074 12.5677 3.64019 13.2 3.91" stroke="#CDB6DF" stroke-linecap="round" stroke-linejoin="round"/>
<path d="M10.2 13.5H12.2C14.0565 13.5 15.837 14.2375 17.1497 15.5503C18.4625 16.863 19.2 18.6435 19.2 20.5C19.2 20.7652 19.0946 21.0196 18.9071 21.2071C18.7196 21.3946 18.4652 21.5 18.2 21.5H4.19998C3.93477 21.5 3.68041 21.3946 3.49287 21.2071C3.30534 21.0196 3.19998 20.7652 3.19998 20.5C3.19998 18.6435 3.93748 16.863 5.25023 15.5503C6.56299 14.2375 8.34347 13.5 10.2 13.5Z" stroke="#CDB6DF" stroke-linecap="round" stroke-linejoin="round"/>
</svg>
