<svg width="24" height="24" viewBox="0 0 24 24" fill="none" xmlns="http://www.w3.org/2000/svg">
<path d="M21 5H17M19 3V7" stroke="#EBEBD3" stroke-linecap="round" stroke-linejoin="round"/>
<path d="M15.59 10C15.2296 10.8259 14.6526 11.539 13.9202 12.064C13.1877 12.5889 12.327 12.9062 11.4291 12.9822C10.5312 13.0582 9.62941 12.8901 8.81916 12.4957C8.00891 12.1013 7.32031 11.4953 6.82618 10.7417C6.33205 9.98813 6.05076 9.11502 6.01206 8.21472C5.97336 7.31442 6.17869 6.42039 6.60633 5.62719C7.03398 4.83399 7.66803 4.17111 8.44145 3.70865C9.21487 3.24619 10.0989 3.00134 11 3C11.6875 3.00074 12.3677 3.14019 13 3.41" stroke="#CDB6DF" stroke-linecap="round" stroke-linejoin="round"/>
<path d="M10 13H12C13.8565 13 15.637 13.7375 16.9497 15.0503C18.2625 16.363 19 18.1435 19 20C19 20.2652 18.8946 20.5196 18.7071 20.7071C18.5196 20.8946 18.2652 21 18 21H4C3.73478 21 3.48043 20.8946 3.29289 20.7071C3.10536 20.5196 3 20.2652 3 20C3 18.1435 3.7375 16.363 5.05025 15.0503C6.36301 13.7375 8.14348 13 10 13Z" stroke="#CDB6DF" stroke-linecap="round" stroke-linejoin="round"/>
</svg>
