<svg width="25" height="24" viewBox="0 0 25 24" fill="none" xmlns="http://www.w3.org/2000/svg">
<path d="M21.2 5H17.2M19.2 3V7" stroke="#EBEBD3" stroke-linecap="round" stroke-linejoin="round"/>
<path d="M15.79 10C15.4295 10.8259 14.8526 11.539 14.1201 12.064C13.3877 12.5889 12.527 12.9062 11.6291 12.9822C10.7311 13.0582 9.82936 12.8901 9.01911 12.4957C8.20887 12.1013 7.52026 11.4953 7.02613 10.7417C6.532 9.98813 6.25071 9.11502 6.21201 8.21472C6.17331 7.31442 6.37864 6.42039 6.80628 5.62719C7.23393 4.83399 7.86799 4.17111 8.6414 3.70865C9.41482 3.24619 10.2988 3.00134 11.2 3C11.8874 3.00074 12.5677 3.14019 13.2 3.41" stroke="#CDB6DF" stroke-linecap="round" stroke-linejoin="round"/>
<path d="M10.2 13H12.2C14.0565 13 15.8369 13.7375 17.1497 15.0503C18.4625 16.363 19.2 18.1435 19.2 20C19.2 20.2652 19.0946 20.5196 18.9071 20.7071C18.7195 20.8946 18.4652 21 18.2 21H4.19995C3.93473 21 3.68038 20.8946 3.49284 20.7071C3.30531 20.5196 3.19995 20.2652 3.19995 20C3.19995 18.1435 3.93745 16.363 5.2502 15.0503C6.56296 13.7375 8.34344 13 10.2 13Z" stroke="#CDB6DF" stroke-linecap="round" stroke-linejoin="round"/>
</svg>
