<svg width="24" height="24" viewBox="0 0 24 24" fill="none" xmlns="http://www.w3.org/2000/svg">
<path d="M20 4H4C3.44772 4 3 4.44772 3 5V20C3 20.5523 3.44772 21 4 21H20C20.5523 21 21 20.5523 21 20V5C21 4.44772 20.5523 4 20 4Z" stroke="#CDB6DF" stroke-linecap="round" stroke-linejoin="round"/>
<path d="M17 3V5M12 3V5M7 3V5M20 4H4C3.73478 4 3.48043 4.10536 3.29289 4.29289C3.10536 4.48043 3 4.73478 3 5V9H21V5C21 4.73478 20.8946 4.48043 20.7071 4.29289C20.5196 4.10536 20.2652 4 20 4Z" stroke="#EBEBD3" stroke-linecap="round" stroke-linejoin="round"/>
</svg>
