<svg width="25" height="24" viewBox="0 0 25 24" fill="none" xmlns="http://www.w3.org/2000/svg">
<path d="M20.8 4H4.79999C4.2477 4 3.79999 4.44772 3.79999 5V20C3.79999 20.5523 4.2477 21 4.79999 21H20.8C21.3523 21 21.8 20.5523 21.8 20V5C21.8 4.44772 21.3523 4 20.8 4Z" stroke="#CDB6DF" stroke-linecap="round" stroke-linejoin="round"/>
<path d="M17.8 3V5M12.8 3V5M7.79999 3V5M20.8 4H4.79999C4.53477 4 4.28042 4.10536 4.09288 4.29289C3.90534 4.48043 3.79999 4.73478 3.79999 5V9H21.8V5C21.8 4.73478 21.6946 4.48043 21.5071 4.29289C21.3196 4.10536 21.0652 4 20.8 4Z" stroke="#EBEBD3" stroke-linecap="round" stroke-linejoin="round"/>
</svg>
