<svg width="30" height="31" viewBox="0 0 30 31" fill="none" xmlns="http://www.w3.org/2000/svg">
<path d="M24.6933 5.83936H5.06666C4.38919 5.83936 3.84 6.38838 3.84 7.06563V25.4598C3.84 26.137 4.38919 26.6861 5.06666 26.6861H24.6933C25.3708 26.6861 25.92 26.137 25.92 25.4598V7.06563C25.92 6.38838 25.3708 5.83936 24.6933 5.83936Z" stroke="#483D3F" stroke-linecap="round" stroke-linejoin="round"/>
<path d="M21.0133 4.61279V7.06535M14.88 4.61279V7.06535M8.74666 4.61279V7.06535M24.6933 5.83907H5.06666C4.74133 5.83907 4.42932 5.96827 4.19928 6.19824C3.96923 6.42821 3.84 6.74012 3.84 7.06535V11.9705H25.92V7.06535C25.92 6.74012 25.7908 6.42821 25.5607 6.19824C25.3307 5.96827 25.0187 5.83907 24.6933 5.83907Z" stroke="#483D3F" stroke-linecap="round" stroke-linejoin="round"/>
</svg>
