<svg width="27" height="27" viewBox="0 0 27 27" fill="none" xmlns="http://www.w3.org/2000/svg">
<path d="M23.625 23.625L16.875 16.875M19.125 11.25C19.125 12.8075 18.6631 14.3301 17.7978 15.6251C16.9325 16.9202 15.7026 17.9295 14.2636 18.5256C12.8247 19.1216 11.2413 19.2775 9.71366 18.9737C8.18606 18.6698 6.78287 17.9198 5.68153 16.8185C4.5802 15.7171 3.83017 14.3139 3.52632 12.7863C3.22246 11.2587 3.37841 9.67534 3.97445 8.23637C4.57049 6.7974 5.57985 5.56749 6.87488 4.70218C8.16992 3.83686 9.69247 3.375 11.25 3.375C13.3386 3.375 15.3416 4.20469 16.8185 5.68153C18.2953 7.15838 19.125 9.16142 19.125 11.25Z" stroke="#483D3F" stroke-linecap="round" stroke-linejoin="round"/>
</svg>
