<svg width="24" height="24" viewBox="0 0 24 24" fill="none" xmlns="http://www.w3.org/2000/svg">
<g clip-path="url(#clip0_115_296)">
<path d="M17 10H7V8C7 6.67392 7.52678 5.40215 8.46447 4.46447C9.40215 3.52679 10.6739 3 12 3C12.8767 2.99901 13.7382 3.22854 14.4982 3.66558C15.2582 4.10261 15.8899 4.73179 16.33 5.49" stroke="#483D3F" stroke-width="2" stroke-linecap="round" stroke-linejoin="round"/>
<path d="M12 17V16M19 11V13.71C19.0287 15.5668 18.3379 17.3627 17.0722 18.7216C15.8065 20.0804 14.0641 20.8969 12.21 21C11.2732 21.0281 10.3403 20.8678 9.46668 20.5287C8.59301 20.1895 7.79635 19.6783 7.12393 19.0255C6.45152 18.3727 5.91704 17.5915 5.5522 16.7282C5.18736 15.8649 4.99958 14.9372 5 14V11C5 10.7348 5.10536 10.4804 5.29289 10.2929C5.48043 10.1054 5.73478 10 6 10H18C18.2652 10 18.5196 10.1054 18.7071 10.2929C18.8946 10.4804 19 10.7348 19 11Z" stroke="#483D3F" stroke-width="2" stroke-linecap="round" stroke-linejoin="round"/>
<path d="M11.95 15H12.05" stroke="#483D3F" stroke-width="2.5" stroke-linecap="round" stroke-linejoin="round"/>
</g>
<defs>
<clipPath id="clip0_115_296">
<rect width="24" height="24" fill="white"/>
</clipPath>
</defs>
</svg>
