<svg width="24" height="24" viewBox="0 0 24 24" fill="none" xmlns="http://www.w3.org/2000/svg">
<path d="M12 15C10.6739 15 9.40215 15.5268 8.46447 16.4645C7.52678 17.4021 7 18.6739 7 20V21H17V20C17 18.6739 16.4732 17.4021 15.5355 16.4645C14.5979 15.5268 13.3261 15 12 15ZM12 7C11.2089 7 10.4355 7.2346 9.77772 7.67412C9.11992 8.11365 8.60723 8.73836 8.30448 9.46927C8.00173 10.2002 7.92252 11.0044 8.07686 11.7804C8.2312 12.5563 8.61216 13.269 9.17157 13.8284C9.73098 14.3878 10.4437 14.7688 11.2196 14.9231C11.9956 15.0775 12.7998 14.9983 13.5307 14.6955C14.2616 14.3928 14.8864 13.8801 15.3259 13.2223C15.7654 12.5645 16 11.7911 16 11C16 9.93913 15.5786 8.92172 14.8284 8.17157C14.0783 7.42143 13.0609 7 12 7Z" stroke="#EBEBD3" stroke-linecap="round" stroke-linejoin="round"/>
<path d="M20 3H4C3.44772 3 3 3.44772 3 4V20C3 20.5523 3.44772 21 4 21H20C20.5523 21 21 20.5523 21 20V4C21 3.44772 20.5523 3 20 3Z" stroke="#CDB6DF" stroke-linecap="round" stroke-linejoin="round"/>
</svg>
