<svg width="25" height="25" viewBox="0 0 25 25" fill="none" xmlns="http://www.w3.org/2000/svg">
<path d="M12.4 15.5C11.0739 15.5 9.80211 16.0268 8.86443 16.9645C7.92675 17.9021 7.39996 19.1739 7.39996 20.5V21.5H17.4V20.5C17.4 19.1739 16.8732 17.9021 15.9355 16.9645C14.9978 16.0268 13.726 15.5 12.4 15.5ZM12.4 7.5C11.6088 7.5 10.8355 7.7346 10.1777 8.17412C9.51989 8.61365 9.0072 9.23836 8.70444 9.96927C8.40169 10.7002 8.32248 11.5044 8.47682 12.2804C8.63116 13.0563 9.01213 13.769 9.57154 14.3284C10.1309 14.8878 10.8437 15.2688 11.6196 15.4231C12.3955 15.5775 13.1998 15.4983 13.9307 15.1955C14.6616 14.8928 15.2863 14.3801 15.7258 13.7223C16.1654 13.0645 16.4 12.2911 16.4 11.5C16.4 10.4391 15.9785 9.42172 15.2284 8.67157C14.4782 7.92143 13.4608 7.5 12.4 7.5Z" stroke="#EBEBD3" stroke-linecap="round" stroke-linejoin="round"/>
<path d="M20.4 3.5H4.39996C3.84768 3.5 3.39996 3.94772 3.39996 4.5V20.5C3.39996 21.0523 3.84768 21.5 4.39996 21.5H20.4C20.9522 21.5 21.4 21.0523 21.4 20.5V4.5C21.4 3.94772 20.9522 3.5 20.4 3.5Z" stroke="#CDB6DF" stroke-linecap="round" stroke-linejoin="round"/>
</svg>
