<svg width="25" height="25" viewBox="0 0 25 25" fill="none" xmlns="http://www.w3.org/2000/svg">
<path d="M12.4 15.5C11.0739 15.5 9.80214 16.0268 8.86446 16.9645C7.92678 17.9021 7.39999 19.1739 7.39999 20.5V21.5H17.4V20.5C17.4 19.1739 16.8732 17.9021 15.9355 16.9645C14.9978 16.0268 13.7261 15.5 12.4 15.5ZM12.4 7.5C11.6089 7.5 10.8355 7.7346 10.1777 8.17412C9.51992 8.61365 9.00723 9.23836 8.70448 9.96927C8.40172 10.7002 8.32251 11.5044 8.47685 12.2804C8.63119 13.0563 9.01216 13.769 9.57157 14.3284C10.131 14.8878 10.8437 15.2688 11.6196 15.4231C12.3956 15.5775 13.1998 15.4983 13.9307 15.1955C14.6616 14.8928 15.2863 14.3801 15.7259 13.7223C16.1654 13.0645 16.4 12.2911 16.4 11.5C16.4 10.4391 15.9786 9.42172 15.2284 8.67157C14.4783 7.92143 13.4609 7.5 12.4 7.5Z" stroke="#EBEBD3" stroke-linecap="round" stroke-linejoin="round"/>
<path d="M20.4 3.5H4.39999C3.84771 3.5 3.39999 3.94772 3.39999 4.5V20.5C3.39999 21.0523 3.84771 21.5 4.39999 21.5H20.4C20.9523 21.5 21.4 21.0523 21.4 20.5V4.5C21.4 3.94772 20.9523 3.5 20.4 3.5Z" stroke="#CDB6DF" stroke-linecap="round" stroke-linejoin="round"/>
</svg>
