<svg width="16" height="16" viewBox="0 0 16 16" fill="none" xmlns="http://www.w3.org/2000/svg">
<path d="M13.2387 2.8042H2.9134C2.55699 2.8042 2.26807 3.09396 2.26807 3.4514V13.1594C2.26807 13.5169 2.55699 13.8066 2.9134 13.8066H13.2387C13.5951 13.8066 13.8841 13.5169 13.8841 13.1594V3.4514C13.8841 3.09396 13.5951 2.8042 13.2387 2.8042Z" stroke="#483D3F" stroke-linecap="round" stroke-linejoin="round"/>
<path d="M11.3027 2.15674V3.45114M8.07607 2.15674V3.45114M4.8494 2.15674V3.45114M13.2387 2.80394H2.9134C2.74225 2.80394 2.5781 2.87213 2.45708 2.9935C2.33606 3.11488 2.26807 3.27949 2.26807 3.45114V6.03995H13.8841V3.45114C13.8841 3.27949 13.8161 3.11488 13.6951 2.9935C13.574 2.87213 13.4099 2.80394 13.2387 2.80394Z" stroke="#483D3F" stroke-linecap="round" stroke-linejoin="round"/>
</svg>
