<svg width="25" height="24" viewBox="0 0 25 24" fill="none" xmlns="http://www.w3.org/2000/svg">
<path d="M12.4 15C11.0739 15 9.80211 15.5268 8.86443 16.4645C7.92675 17.4021 7.39996 18.6739 7.39996 20V21H17.4V20C17.4 18.6739 16.8732 17.4021 15.9355 16.4645C14.9978 15.5268 13.726 15 12.4 15ZM12.4 7C11.6088 7 10.8355 7.2346 10.1777 7.67412C9.51989 8.11365 9.0072 8.73836 8.70444 9.46927C8.40169 10.2002 8.32248 11.0044 8.47682 11.7804C8.63116 12.5563 9.01213 13.269 9.57154 13.8284C10.1309 14.3878 10.8437 14.7688 11.6196 14.9231C12.3955 15.0775 13.1998 14.9983 13.9307 14.6955C14.6616 14.3928 15.2863 13.8801 15.7258 13.2223C16.1654 12.5645 16.4 11.7911 16.4 11C16.4 9.93913 15.9785 8.92172 15.2284 8.17157C14.4782 7.42143 13.4608 7 12.4 7Z" stroke="#EBEBD3" stroke-linecap="round" stroke-linejoin="round"/>
<path d="M20.4 3H4.39996C3.84768 3 3.39996 3.44772 3.39996 4V20C3.39996 20.5523 3.84768 21 4.39996 21H20.4C20.9522 21 21.4 20.5523 21.4 20V4C21.4 3.44772 20.9522 3 20.4 3Z" stroke="#CDB6DF" stroke-linecap="round" stroke-linejoin="round"/>
</svg>
